<svg version="1.2" xmlns="http://www.w3.org/2000/svg" viewBox="0 0 400 400" width="400" height="400">
	<title>Novo Projeto</title>
	<style>
		tspan { white-space:pre } 
		.s0 { fill: #18611a } 
		.t1 { font-size: 39px;fill: #ededed;font-weight: 400;font-style: italic;font-family: "DejaVuSansCondensed-Oblique", "DejaVu Sans" } 
		.t2 { font-size: 39px;fill: #f8f4f4;font-weight: 700;font-family: "DejaVuSansCondensed-Bold", "DejaVu Sans" } 
	</style>
	<path id="Path 0" class="s0" d="m197 70.4c16.8 0.1 20 0.3 22.3 1.8 1.5 1 2.7 2.2 2.7 2.8 0 0.5-1.2 2.2-2.8 3.6-1.5 1.5-8.3 5.4-15.2 8.6-6.9 3.3-17.4 8.4-23.5 11.2-6.1 2.9-12.5 6.5-14.3 7.9-1.7 1.5-3.2 3.4-3.2 4.2 0 0.8 1.5 2.3 3.2 3.2 2.8 1.5 6.1 1.7 21.8 1.6 10.2 0 26.8-0.8 37-1.7 10.2-0.9 30-3 44-4.7 14-1.6 38.1-4.8 53.5-7 15.4-2.2 36.6-5.3 47-7 10.4-1.6 19.1-2.9 19.3-2.9 0.1 0 0.2 43.2 0.2 192l-3.3 0.5c-1.7 0.2-6.1 0.9-9.7 1.4-3.6 0.6-13.9 1.9-23 3.1-9.1 1.1-20.1 2.5-24.5 3-4.4 0.6-17.9 2.1-30 3.5-12.1 1.3-32.4 3.3-45 4.4-12.7 1.1-31.3 2.6-41.5 3.2-10.2 0.6-27.7 0.9-39 0.6-11.4-0.3-22.3-1-24.5-1.7-2.2-0.7-4.8-1.9-5.8-2.8-1-1-1.8-2.5-1.7-3.5 0-0.9 1.5-3.1 3.2-4.8 1.8-1.7 7.6-5.6 12.8-8.6 5.2-3.1 11.4-7.1 13.7-8.9 3-2.4 4.3-4.2 4.3-5.9 0-1.9-0.7-2.7-3.3-3.5-1.7-0.6-5.7-1.3-8.7-1.6-3-0.3-12-0.1-20 0.5-8 0.7-21.5 2.1-30 3.2-8.5 1.1-18.7 2.4-22.5 3-3.8 0.5-13.8 2.1-22 3.4-8.3 1.3-24.7 4.3-36.5 6.5-11.8 2.3-22.5 4.3-26 5v-192l5.2-1c2.9-0.5 24.2-3.6 47.3-6.9 23.1-3.3 52.1-7.1 64.5-8.5 12.4-1.4 28.1-3 35-3.6 6.9-0.5 14.1-1.2 16-1.4 1.9-0.2 12.3-0.3 23-0.2z"/>
	<text id="ALPHA EDTECH" style="transform: matrix(1,0,0,1,39,148)" >
		<tspan x="27.1" y="29.6" class="t1">A</tspan><tspan  y="29.6" class="t1">L</tspan><tspan  y="29.6" class="t1">P</tspan><tspan  y="29.6" class="t1">H</tspan><tspan  y="29.6" class="t1">A</tspan><tspan  y="29.6" class="t1"> </tspan><tspan  y="29.6" class="t1">E</tspan><tspan  y="29.6" class="t1">D</tspan><tspan  y="29.6" class="t1">T</tspan><tspan  y="29.6" class="t1">E</tspan><tspan  y="29.6" class="t1">C</tspan><tspan  y="29.6" class="t1">H</tspan><tspan  y="29.6" class="t1">
</tspan>
	</text>
	<text id="TURING" style="transform: matrix(1,0,0,1,69,194)" >
		<tspan x="54.2" y="29.6" class="t2">T</tspan><tspan  y="29.6" class="t2">U</tspan><tspan  y="29.6" class="t2">R</tspan><tspan  y="29.6" class="t2">I</tspan><tspan  y="29.6" class="t2">N</tspan><tspan  y="29.6" class="t2">G
</tspan>
	</text>
</svg>